<svg version="1.2" xmlns="http://www.w3.org/2000/svg" viewBox="0 0 256 256" width="256" height="256">
	<title>octave-light-svg</title>
	<defs>
		<radialGradient id="g1" cx="89.3" cy="200.3" r="300.8" gradientUnits="userSpaceOnUse">
			<stop offset="0" stop-color="#008cbe"/>
			<stop offset="1" stop-color="#b2ffff"/>
		</radialGradient>
	</defs>
	<style>
		.s0 { fill: url(#g1) } 
		.s1 { fill: #ff7f2a;stroke: #d45500;stroke-width: 6.3 } 
	</style>
	<g id="Layer">
		<path id="Layer" fill-rule="evenodd" class="s0" d="m190.9 67c40.3 43.7 47.8 106.5 16.8 140.2-31 33.7-88.8 25.6-129.1-18.2-40.2-43.7-47.8-106.5-16.7-140.2 31-33.7 88.7-25.6 129 18.2zm-89.1 104.5c30.9 33.6 75.7 39.3 100.1 12.9 24.3-26.5 19-75.2-11.9-108.8-30.9-33.5-75.7-39.3-100-12.8-24.4 26.4-19.1 75.1 11.8 108.7z"/>
		<path id="Layer" class="s1" d="m196.3 60.7h-16.8q-0.9 0-1.7 0.4-0.9 0.3-1.5 1-0.7 0.6-1 1.5-0.4 0.8-0.4 1.7v16.8q0 0.9 0.4 1.8 0.3 0.8 1 1.4 0.6 0.7 1.5 1 0.8 0.4 1.7 0.4h16.8q0.9 0 1.7-0.4 0.9-0.3 1.5-1 0.7-0.6 1-1.4 0.4-0.9 0.4-1.8v-16.8q0-0.9-0.4-1.7-0.3-0.9-1-1.5-0.6-0.7-1.5-1-0.8-0.4-1.7-0.4zm-117 34.2h-39.5c-6 0-10.8 4.9-10.8 10.8v39.6c0 5.9 4.8 10.8 10.8 10.8h39.5c6 0 10.8-4.9 10.8-10.8v-39.6c0-5.9-4.8-10.8-10.8-10.8zm138.1 80.1h-23.9q-1.3 0-2.5 0.5-1.2 0.5-2.1 1.4-0.9 0.9-1.4 2.1-0.5 1.2-0.5 2.5v23.9q0 1.3 0.5 2.5 0.5 1.2 1.4 2.1 0.9 0.9 2.1 1.4 1.2 0.5 2.5 0.5h23.9q1.3 0 2.5-0.5 1.2-0.5 2.1-1.4 0.9-0.9 1.4-2.1 0.5-1.2 0.5-2.5v-23.9q0-1.3-0.5-2.5-0.5-1.2-1.4-2.1-0.9-0.9-2.1-1.4-1.2-0.5-2.5-0.5z"/>
	</g>
</svg>